<svg viewBox="0 0 1080 1080" xmlns="http://www.w3.org/2000/svg" xmlns:xlink="http://www.w3.org/1999/xlink"><clipPath id="a"><path d="m826.51 55.65c-72.41 36.89-101.2 125.5-64.3 197.9 36.89 72.41 125.5 101.2 197.9 64.3 72.41-36.89 101.2-125.5 64.3-197.9-25.99-51.01-77.64-80.38-131.22-80.37-22.47 0-45.29 5.17-66.68 16.07"/></clipPath><clipPath id="b"><path d="m76.42 527.05c0 260.11 210.86 470.96 470.97 470.96s470.96-210.86 470.96-470.96-210.86-470.96-470.97-470.96-470.96 210.86-470.96 470.96"/></clipPath><clipPath id="c"><path d="m-714.08 886.36h1131.94v909.8h-1131.94z"/></clipPath><g clip-path="url(#a)"><g fill="#173e5e"><path d="m907.88 14.19h11.02v382.91h-11.02z" transform="matrix(.89100652 -.4539905 .4539905 .89100652 6.2 437.1)"/><path d="m829.78 53.98h11.02v382.91h-11.02z" transform="matrix(.89100652 -.4539905 .4539905 .89100652 -20.38 405.98)"/><path d="m985.98-25.6h11.02v382.91h-11.02z" transform="matrix(.89100652 -.4539905 .4539905 .89100652 32.78 468.22)"/><path d="m771.21 83.83h11.02v382.91h-11.02z" transform="matrix(.89100652 -.4539905 .4539905 .89100652 -40.32 382.64)"/><path d="m927.41 4.24h11.02v382.91h-11.02z" transform="matrix(.89100652 -.4539905 .4539905 .89100652 12.84 444.88)"/><path d="m849.31 44.04h11.02v382.91h-11.02z" transform="matrix(.89100652 -.4539905 .4539905 .89100652 -13.74 413.76)"/><path d="m1005.51-35.55h11.02v382.91h-11.02z" transform="matrix(.89100652 -.4539905 .4539905 .89100652 39.42 476)"/><path d="m790.74 73.88h11.02v382.91h-11.02z" transform="matrix(.89100652 -.4539905 .4539905 .89100652 -33.67 390.42)"/><path d="m946.93-5.71h11.02v382.91h-11.02z" transform="matrix(.89100652 -.4539905 .4539905 .89100652 19.49 452.66)"/><path d="m868.83 34.09h11.02v382.91h-11.02z" transform="matrix(.89100652 -.4539905 .4539905 .89100652 -7.09 421.54)"/><path d="m1025.03-45.5h11.02v382.91h-11.02z" transform="matrix(.89100652 -.4539905 .4539905 .89100652 46.07 483.78)"/><path d="m810.26 63.93h11.02v382.91h-11.02z" transform="matrix(.89100652 -.4539905 .4539905 .89100652 -27.03 398.2)"/><path d="m966.46-15.65h11.02v382.91h-11.02z" transform="matrix(.89100652 -.4539905 .4539905 .89100652 26.13 460.44)"/><path d="m888.36 24.14h11.02v382.91h-11.02z" transform="matrix(.89100652 -.4539905 .4539905 .89100652 -.45 429.32)"/></g><path d="m1043.65-57.22h11.02v382.91h-11.02z" fill="#99bd08" transform="matrix(.89100652 -.4539905 .4539905 .89100652 53.41 490.94)"/></g><g clip-path="url(#b)"><image height="2240" transform="matrix(.44 0 0 .44 -228.15 26.16)" width="3360" xlink:href="../Downloads/Lavu.com_Hero_Image_4 (1).jpg"/></g><g clip-path="url(#c)" fill="#143e5e"><path d="m-232.42 1796.16c204.34 0 370-165.65 370-370s-165.65-370-370-370-370 165.65-370 370 165.65 370 370 370"/><path d="m-232.42 1796.16c204.34 0 370-165.65 370-370s-165.65-370-370-370-370 165.65-370 370 165.65 370 370 370"/></g><rect fill="#b9e113" height="224.59" rx="32.97" width="224.59" x="66.29" y="786.98"/><path d="m178.74 950.69c-5.71-5.71-36.61-36.93-46.75-48.97-5.07-6.02-7.45-12.2-7.45-19.18s2.69-14.1 7.45-19.18c3.8-3.96 9.19-6.18 15.22-6.18 7.45 0 13.47 4.12 19.02 8.4.79.63 1.59 1.43 2.38 2.22 2.54 2.54 3.8 5.39 10.14 5.39s7.77-2.85 10.14-5.39c.79-.79 1.58-1.58 2.38-2.22 5.54-4.44 11.57-8.4 19.02-8.4 6.02 0 11.41 2.22 15.22 6.18 4.76 5.07 7.45 11.89 7.45 19.18s-2.38 13-7.45 19.18c-10.14 12.04-41.2 43.26-46.75 48.97m64.16-104.27c-8.4-8.88-20.13-13.79-32.8-13.79-11.41 0-22.5 3.8-31.54 10.94-9.03-6.98-20.13-10.94-31.54-10.94-12.68 0-24.4 4.91-32.8 13.79-9.19 9.67-14.26 22.5-14.26 36.13s5.07 26.47 14.26 36.14l50.4 52.77c3.64 3.8 8.72 6.02 13.95 6.02s10.3-2.22 13.94-6.02l50.4-52.77c9.19-9.67 14.26-22.5 14.26-36.14 0-13.63-5.07-26.47-14.26-36.13" fill="#fff"/></svg>