<?xml version="1.0" encoding="UTF-8"?><svg id="uuid-9fdf8d64-02b1-44c4-a380-eb157bffcfa5" xmlns="http://www.w3.org/2000/svg" viewBox="0 0 100 100"><path d="m62.33,47.15l-12.33-13.65-12.33,13.65h24.67,0Zm-9.53,41.42l34.98-39.14h-22.05l-12.92,39.14h0Zm11.74-42.37l-11.98-13.26h17.59l-5.61,13.26h0Zm7.76-12.5l-5.69,13.44h20.72l-15.03-13.44h0Zm-42.47-.77h17.59l-11.98,13.26-5.61-13.26h0Zm3.54,14.21l-5.69-13.44-15.03,13.44s20.72,0,20.72,0Zm29.94,2.29l-13.32,40.34-13.32-40.34h26.64,0Zm-29.04,0H12.22l34.98,39.14s-12.92-39.14-12.92-39.14Zm13.22-28.81v-10.39h4.62v10.39h-4.62Zm33.68-.24l-7.69,7.69-3.27-3.27,7.69-7.69,3.27,3.27Zm-59.48-3.27l7.69,7.69-3.27,3.27-7.69-7.69,3.27-3.27Z" fill-rule="evenodd" stroke-width="0"/></svg>