<?xml version="1.0" encoding="UTF-8"?><svg id="uuid-5f8cbf13-6deb-47fd-97d8-42e55a6504d0" xmlns="http://www.w3.org/2000/svg" viewBox="0 0 100 100"><path d="m87.8,77.91c-1.27-1.29-3.02-2.06-4.98-2.06h-5.71V23.18H7.4v66.88h75.43c3.9,0,7.04-3.17,7.04-7.12,0-1.95-.78-3.75-2.06-5.03Zm-24.91-24.56v27.33h-11.47v-16.66h-14.33v16.66h-11.46v-27.33h-5.03l23.65-21.8,23.66,21.8h-5.03Z" stroke-width="0"/><path d="m92.6,17.06v65.88c0-2.64-1.01-5.11-2.86-6.96-1.83-1.85-4.29-2.87-6.92-2.87h-2.98V9.94h5.71c3.79,0,7.04,3.07,7.04,7.12Z" stroke-width="0"/></svg>