<?xml version="1.0" encoding="UTF-8"?><svg id="uuid-e68c8df1-93a0-473e-af85-9292b04cc57a" xmlns="http://www.w3.org/2000/svg" viewBox="0 0 100 100"><rect x="43.41" y="7.87" width="3.13" height="12.52" stroke-width="0"/><rect x="26.2" y="12.48" width="3.13" height="12.52" transform="translate(-5.65 16.39) rotate(-30)" stroke-width="0"/><rect x="13.59" y="25.09" width="3.13" height="12.52" transform="translate(-19.57 28.8) rotate(-60)" stroke-width="0"/><rect x="4.28" y="47" width="12.52" height="3.13" stroke-width="0"/><rect x="8.9" y="64.21" width="12.52" height="3.13" transform="translate(-30.85 16.39) rotate(-30)" stroke-width="0"/><rect x="21.5" y="76.82" width="12.52" height="3.13" transform="translate(-54 63.24) rotate(-60)" stroke-width="0"/><rect x="43.41" y="76.73" width="3.13" height="12.52" stroke-width="0"/><path d="m44.98,70.47c.47,0,.92-.01,1.37-.05h.3c.06-.02.12-.03.19-.04.44-.03.86-.07,1.29-.14.53-.08,1.03-.16,1.52-.28s.93-.21,1.35-.34c.54-.15,1.08-.32,1.6-.52.42-.15.78-.3,1.14-.46l.59-.27c2.73-1.28,5.16-3.12,7.14-5.4l.5-3.47h-22.25l.66-2.03h0l9.7-30.22c-.84-.2-1.7-.35-2.56-.45-.34-.04-.67-.07-1-.08-.56-.06-1.04-.07-1.53-.07-12.1,0-21.91,9.81-21.91,21.91s9.81,21.91,21.91,21.91Z" stroke-width="0"/><path d="m58.53,92.13l4.83-33.84h-21.99l14.3-44.49h25.74l-7.83,26.61h22.12l-37.18,51.73Zm7.8-27.72l-1.85,12.92,23.81-33.12h-19.78l7.83-26.61h-17.88l-11.86,36.89h21.15l-1.42,9.92Z" stroke-width="0"/></svg>