<?xml version="1.0" encoding="UTF-8"?><svg id="uuid-93e03689-b6d4-479b-859d-19bdce1c9d03" xmlns="http://www.w3.org/2000/svg" viewBox="0 0 100 100"><path d="m50,34.09c-8.77,0-15.91,7.14-15.91,15.91s7.14,15.91,15.91,15.91,15.91-7.14,15.91-15.91-7.14-15.91-15.91-15.91Zm5.17,14.32c-2.28,0-4.13-1.85-4.13-4.13s1.85-4.13,4.13-4.13,4.13,1.85,4.13,4.13-1.85,4.13-4.13,4.13Z" stroke-width="0"/><path d="m15.53,15.53h18.56v-5.3H10.23v23.86h5.3V15.53Z" stroke-width="0"/><path d="m84.47,34.09h5.3V10.23h-23.86v5.3h18.56v18.56Z" stroke-width="0"/><path d="m84.47,84.47h-18.56v5.3h23.86v-23.86h-5.3v18.56Z" stroke-width="0"/><path d="m15.53,65.91h-5.3v23.86h23.86v-5.3H15.53v-18.56Z" stroke-width="0"/><path d="m89.42,51.33c.47-.82.47-1.83,0-2.65-8.03-13.9-23.13-22.54-39.42-22.54s-31.39,8.64-39.42,22.54c-.47.82-.47,1.83,0,2.65,8.03,13.9,23.13,22.54,39.42,22.54s31.39-8.64,39.42-22.54Zm-39.42,17.24c-13.87,0-26.77-7.07-34.03-18.56,7.26-11.49,20.16-18.56,34.03-18.56s26.77,7.07,34.03,18.56c-7.26,11.49-20.16,18.56-34.03,18.56Z" stroke-width="0"/></svg>