<?xml version="1.0" encoding="UTF-8"?><svg id="uuid-c7ff0457-3529-4cc8-aee0-8ee3a3b6d500" xmlns="http://www.w3.org/2000/svg" viewBox="0 0 100 100"><path d="m88.3,78.62l-27.88-27.88c2.65-7.76-1.5-16.19-9.25-18.84-3.64-1.24-7.62-1.02-11.1.61.1.06.2.13.28.21l9.48,9.48c.53.53.53,1.4,0,1.93h0s-5.6,5.59-5.6,5.59c-.53.53-1.4.53-1.93,0h0s-9.48-9.48-9.48-9.48c-.03-.04-.07-.08-.1-.12-3.21,7.54.3,16.26,7.85,19.47,3.2,1.36,6.77,1.56,10.1.55l28.05,28.05c2.65,2.65,6.94,2.65,9.59,0h0c2.65-2.65,2.65-6.94,0-9.59h0Zm-4.66,8.35c-1.89,0-3.43-1.53-3.43-3.43,0-1.89,1.53-3.43,3.43-3.43,1.89,0,3.43,1.53,3.43,3.43h0c0,1.89-1.53,3.43-3.43,3.43h0,0Z" stroke-width="0"/><path d="m79.84,39.93h-4.6c-.76-3.56-2.16-6.95-4.15-10l3.26-3.26c1.01-1.01,1.01-2.64,0-3.65,0,0,0,0,0,0l-5.15-5.15c-1.01-1.01-2.64-1.01-3.65,0,0,0,0,0,0,0l-3.26,3.26c-3.05-1.98-6.44-3.39-10-4.15v-4.59c0-1.43-1.16-2.58-2.58-2.58h-7.28c-1.43,0-2.58,1.16-2.58,2.58v4.6c-3.56.76-6.95,2.16-10,4.15l-3.29-3.29c-1.01-1.01-2.64-1.01-3.65,0,0,0,0,0,0,0l-5.15,5.15c-1.01,1.01-1.01,2.64,0,3.65,0,0,0,0,0,0l3.29,3.29c-1.98,3.05-3.39,6.44-4.15,10h-4.6c-1.43,0-2.58,1.16-2.58,2.58h0v7.28c0,1.43,1.16,2.58,2.58,2.58h4.6c.76,3.56,2.16,6.95,4.15,10l-3.26,3.26c-1.01,1.01-1.01,2.64,0,3.65,0,0,0,0,0,0l5.15,5.15c1.01,1.01,2.64,1.01,3.65,0,0,0,0,0,0,0l3.26-3.26c3.05,1.98,6.44,3.39,10,4.15v4.6c0,1.43,1.16,2.58,2.58,2.58h7.28c1.43,0,2.58-1.16,2.58-2.58h0v-4.6c1.62-.34,3.21-.82,4.74-1.43l-7.77-7.78c-11.03,1.77-21.4-5.74-23.17-16.77-1.77-11.03,5.74-21.4,16.77-23.17,11.03-1.77,21.4,5.74,23.17,16.77.33,2.03.34,4.1.04,6.14l7.82,7.82c.57-1.47,1.02-2.99,1.35-4.53h4.6c1.43,0,2.58-1.16,2.58-2.58h0v-7.28c0-1.43-1.16-2.58-2.58-2.58h0Z" stroke-width="0"/></svg>