<?xml version="1.0" encoding="UTF-8"?><svg id="uuid-3c7a7298-46ac-44ba-9bd9-7e3282e36aa5" xmlns="http://www.w3.org/2000/svg" viewBox="0 0 100 100"><path d="m49.55,11.23c-4.65,0-8.42,3.77-8.42,8.42h0c0,4.65,3.77,8.42,8.42,8.42h0c4.65,0,8.42-3.77,8.42-8.42h0c0-4.65-3.77-8.42-8.42-8.42h0Zm-6.72,16.14l-19.46,53.47c-.91,2.5-1.03,2.99-.76,4.59.5,2.32,1.04,4.14,1.44,4.28.4.15,1.98-.9,3.85-2.36,1.24-1.05,1.46-1.5,2.37-4l19.28-52.96,19.28,52.96c.91,2.5,1.13,2.95,2.37,4,1.87,1.45,3.46,2.5,3.86,2.36.4-.15.93-1.97,1.43-4.28.28-1.6.15-2.09-.76-4.59l-19.46-53.46c-.95.82-2.04,1.47-3.22,1.9-1.17.42-2.4.63-3.64.61-1.15-.01-2.29-.22-3.37-.61-1.18-.43-2.27-1.08-3.22-1.91Zm-27.14,2.1l-11.14,11.14,7.96,7.96,2.6-2.6,1.3,1.3-2.6,2.6,7.96,7.96,5.21-5.2,1.3,1.3-5.2,5.21,4.57,4.57,5.95-16.34L15.69,29.47Zm67.72,0l-17.9,17.9,5.94,16.34,4.57-4.57-2.6-2.6,1.3-1.3,2.6,2.6,7.96-7.96-5.2-5.2,1.3-1.3,5.2,5.21,7.96-7.96-11.14-11.14h0Zm-41.21,26.5l-5.95,16.34,2.16,2.16,1.88,1.88,5.2-5.2,1.3,1.3-5.21,5.2,7.96,7.96,7.96-7.96-2.6-2.6,1.3-1.3,2.6,2.6,1.88-1.88,2.16-2.16-5.94-16.34-7.35,7.35-7.36-7.36h0Z" stroke-width="0"/></svg>