<?xml version="1.0" encoding="UTF-8"?><svg id="uuid-e40c7364-81e5-4fef-977f-7da0bb7463ee" xmlns="http://www.w3.org/2000/svg" viewBox="0 0 100 100"><path d="m94.51,50.69c0-1.92-.74-3.72-2.09-5.07l-28.57-28.58c-1.35-1.35-3.15-2.09-5.07-2.09-1.92,0-3.72.74-5.07,2.09L7.58,63.17c-1.35,1.35-2.09,3.15-2.09,5.07s.74,3.72,2.1,5.07l8.75,8.75h-7.95v3h77.75v-3h-20l26.3-26.3c1.35-1.35,2.09-3.15,2.09-5.07Zm-29.44,23.4c-3.97,3.96-9.23,6.15-14.84,6.15s-10.88-2.18-14.84-6.14c-8.19-8.19-8.19-21.5,0-29.68,3.96-3.97,9.23-6.15,14.84-6.15s10.88,2.18,14.84,6.15c3.97,3.96,6.15,9.24,6.15,14.84,0,5.61-2.18,10.88-6.15,14.84Zm-2.8-11.98c0-1.68-.67-3.19-2.02-4.54-.72-.72-1.47-1.24-2.23-1.56-.76-.32-1.57-.48-2.41-.49-.84,0-1.74.13-2.68.4-.95.27-2.08.69-3.41,1.26-1.33.57-2.35.84-3.06.83-.71-.02-1.37-.32-1.97-.93-.65-.65-.98-1.34-.99-2.06-.01-.72.31-1.41.96-2.06.66-.66,1.42-.94,2.28-.87s1.77.59,2.72,1.54l3.43-3.43c-1.54-1.54-3.2-2.4-4.96-2.58-1.76-.18-3.44.33-5.04,1.54l-2.58-2.58-1.9,1.9,2.54,2.54c-1.27,1.56-1.91,3.2-1.91,4.91s.67,3.23,2.01,4.57c.78.78,1.57,1.32,2.38,1.63.81.31,1.65.45,2.51.42.86-.03,1.77-.2,2.71-.5.95-.31,2.01-.73,3.2-1.27,1.19-.54,2.15-.79,2.9-.77.75.03,1.44.36,2.09,1.01.63.62.92,1.32.89,2.1-.03.77-.4,1.51-1.1,2.21-.84.84-1.73,1.23-2.68,1.18-.95-.06-1.9-.56-2.84-1.5l-3.43,3.43c1.62,1.62,3.37,2.48,5.24,2.56,1.87.09,3.7-.59,5.5-2.04l2.35,2.35,1.89-1.89-2.36-2.36c1.32-1.62,1.98-3.28,1.98-4.95Z" stroke-width="0"/></svg>