<?xml version="1.0" encoding="UTF-8"?><svg id="uuid-4d8308aa-ac3d-4587-ae3e-a0dcc39aaa0c" xmlns="http://www.w3.org/2000/svg" viewBox="0 0 100 100"><path d="m60.94,79.91h-21.75c-1.5,0-2.72,1.22-2.72,2.72s1.22,2.72,2.72,2.72h21.75c1.5,0,2.72-1.22,2.72-2.72s-1.22-2.72-2.72-2.72Z" stroke-width="0"/><path d="m47.35,93.5h5.44c3.01,0,5.44-2.43,5.44-5.44h-16.31c0,3.01,2.43,5.44,5.44,5.44Z" stroke-width="0"/><path d="m50.06,6.5c-15.02,0-27.19,12.17-27.19,27.19,0,10.04,5.5,18.71,13.59,23.42v11.93h27.19v-11.93c8.09-4.71,13.59-13.38,13.59-23.42,0-15.02-12.17-27.19-27.19-27.19Zm-4.93,48.4l2.38-16.66h-10.82l7.04-21.9h12.67l-3.85,13.1h10.89l-18.3,25.46Z" stroke-width="0"/><path d="m60.94,71.75h-21.75c-1.5,0-2.72,1.22-2.72,2.72s1.22,2.72,2.72,2.72h21.75c1.5,0,2.72-1.22,2.72-2.72s-1.22-2.72-2.72-2.72Z" stroke-width="0"/></svg>