<?xml version="1.0" encoding="UTF-8"?><svg id="uuid-cde239d5-f9ba-4791-a9fa-9e862a6d2372" xmlns="http://www.w3.org/2000/svg" viewBox="0 0 100 100"><path d="m92.89,62.23c-13.48-.02-24.41-10.94-24.42-24.42,0-1.12-.91-2.04-2.04-2.04s-2.04.91-2.04,2.04c-.02,13.48-10.94,24.41-24.42,24.42-1.12,0-2.04.91-2.04,2.04s.91,2.04,2.04,2.04c13.48.02,24.41,10.94,24.42,24.42,0,1.12.91,2.04,2.04,2.04s2.04-.91,2.04-2.04c.02-13.48,10.94-24.41,24.42-24.42,1.12,0,2.04-.91,2.04-2.04s-.91-2.04-2.04-2.04Z" stroke-width="0"/><path d="m59.97,20.24c-6.62,0-11.99-5.38-12-12,0-.55-.45-1-1-1s-1,.45-1,1c0,6.62-5.38,11.99-12,12-.55,0-1,.45-1,1s.45,1,1,1c6.62,0,11.99,5.38,12,12,0,.55.45,1,1,1s1-.45,1-1c0-6.62,5.38-11.99,12-12,.55,0,1-.45,1-1s-.45-1-1-1Z" stroke-width="0"/><path d="m40.37,45.77c-8.66,0-15.68-7.03-15.69-15.69,0-.72-.59-1.31-1.31-1.31s-1.31.59-1.31,1.31c0,8.66-7.03,15.68-15.69,15.69-.72,0-1.31.59-1.31,1.31s.59,1.31,1.31,1.31c8.66,0,15.68,7.03,15.69,15.69,0,.72.59,1.31,1.31,1.31s1.31-.59,1.31-1.31c0-8.66,7.03-15.68,15.69-15.69.72,0,1.31-.59,1.31-1.31s-.59-1.31-1.31-1.31Z" stroke-width="0"/></svg>