<?xml version="1.0" encoding="UTF-8"?><svg id="uuid-6abd13a3-29af-4578-9bd0-cb28a1769d83" xmlns="http://www.w3.org/2000/svg" viewBox="0 0 100 100"><path d="m92.2,91.51H12.2V11.51h80v80Zm-76-4h72V15.51H16.2v72Z" stroke-width="0"/><path d="m52.21,18.54c-4.33,9.14-4.58,20.01,0,29.68,4.58-9.67,4.33-20.54,0-29.68Zm28.55,16.49c-10.07.82-19.61,6.03-25.69,14.84,10.66-.87,19.95-6.52,25.69-14.84Zm-57.12,0c5.75,8.31,15.04,13.97,25.7,14.84-6.08-8.8-15.63-14.01-25.7-14.84Zm25.72,18.14c-10.67.87-19.96,6.52-25.71,14.84,10.08-.83,19.63-6.04,25.71-14.84Zm5.7,0c6.08,8.79,15.62,14.01,25.7,14.84-5.75-8.32-15.04-13.97-25.7-14.84Zm-2.85,1.65c-4.57,9.67-4.32,20.53,0,29.66,4.32-9.13,4.58-20,0-29.66Z" stroke-width="0"/></svg>