<?xml version="1.0" encoding="UTF-8"?><svg id="uuid-144a423f-f9d6-4cb0-bf98-c697563b6379" xmlns="http://www.w3.org/2000/svg" viewBox="0 0 100 100"><path d="m25.74,39.97v21.19h23.65v-21.3h-23.65s0,.07,0,.11Z" stroke-width="0"/><path d="m75.17,37.6c-.54-5.86-3.04-11.13-6.85-15.1l-15.1,15.1h21.95Z" stroke-width="0"/><path d="m32.68,22.51c-3.79,3.97-6.29,9.23-6.83,15.09h21.91l-15.09-15.09Z" stroke-width="0"/><rect x="25.74" y="63.41" width="23.65" height="21.3" stroke-width="0"/><path d="m34.31,20.95l15.08,15.08V15.03c-.12,0-.25,0-.37,0-5.63.26-10.72,2.44-14.7,5.92Z" stroke-width="0"/><path d="m85.48,39.86c0-18.96-14.57-34.39-33.16-35.13-.59-.02-1.19-.04-1.79-.04,0,0-.02,0-.02,0,0,0-.02,0-.03,0-.6,0-1.19.01-1.78.04C30.11,5.47,15.54,20.91,15.54,39.88v54.01c0,.62.51,1.13,1.13,1.13h67.7c.3,0,.59-.12.8-.33.21-.21.33-.5.33-.8l-.03-54.02Zm-8.25,46.78c-.21.21-.5.33-.8.33H24.61c-.62,0-1.13-.51-1.13-1.13v-45.88c0-14.59,11.17-26.53,25.43-27.18.52-.02,1.04-.04,1.57-.04,0,0,.01,0,.02,0,0,0,.01,0,.02,0,.53,0,1.06.01,1.58.04,14.25.65,25.42,12.59,25.43,27.17l.02,45.89c0,.3-.12.59-.33.8Z" stroke-width="0"/><path d="m52.01,15.04c-.12,0-.24,0-.35,0v20.95l15.04-15.04c-3.98-3.46-9.07-5.64-14.68-5.9Z" stroke-width="0"/><polygon points="51.65 63.41 51.65 84.71 75.3 84.71 75.29 63.41 51.65 63.41" stroke-width="0"/><path d="m75.28,39.96s0-.07,0-.1h-23.63v21.3h23.64v-21.2Z" stroke-width="0"/></svg>