<?xml version="1.0" encoding="UTF-8"?><svg id="uuid-a6d8daa9-c730-4198-90f6-35c4d10d7cb2" xmlns="http://www.w3.org/2000/svg" viewBox="0 0 100 100"><path d="m97.19,37.82L52.33,9.96c-.61-.38-1.34-.38-1.95,0L5.51,37.82l1.95,3.92,9.38-5.83v54.27c0,1.24.9,2.24,2.01,2.24h65.75c1.11,0,2.01-1,2.01-2.24v-53.81l8.64,5.36,1.95-3.92Zm-14.6,50.12H20.85v-54.52l30.5-18.94,31.24,19.4v54.06Z" stroke-width="0"/><path d="m73.61,71.59l-6.65-7.43-3.27,3.65,2.71,3.02h-24.16l1.41-1.58-3.23-3.6-1.41,1.58v-26.98l2.71,3.02,3.27-3.65-6.65-7.43c-.9-1.01-2.37-1.01-3.27,0l-6.65,7.43,3.27,3.65,2.71-3.02v35.74h32l-2.71,3.02,3.27,3.65,6.65-7.43c.9-1.01.9-2.64,0-3.65Z" stroke-width="0"/><path d="m47.98,57.21l3.23-3.6,3.23,3.6-3.23,3.6-3.23-3.6Z" stroke-width="0"/><path d="m53.38,51.19l3.23-3.6,3.23,3.6-3.23,3.6-3.23-3.6Z" stroke-width="0"/><path d="m42.59,63.23l3.23-3.6,3.23,3.6-3.23,3.6-3.23-3.6Z" stroke-width="0"/><path d="m58.77,45.16l3.23,3.6,1.56-1.74v4.32h4.62v-10.5c0-1.43-1.03-2.58-2.31-2.58h-9.41v5.16h3.87l-1.56,1.74Z" stroke-width="0"/></svg>