<?xml version="1.0" encoding="UTF-8"?><svg id="uuid-6a8c9fc9-bf37-43b7-8bbc-8f09bffb5617" xmlns="http://www.w3.org/2000/svg" viewBox="0 0 100 100"><path d="m49.22,72.06c0-13.52,10.96-24.48,24.48-24.48,3.06,0,5.98.59,8.68,1.61.38-2.13.59-4.31.59-6.55-.02-20.42-16.57-36.97-36.99-36.99C25.56,5.66,8.99,22.22,8.99,42.65s16.56,36.99,36.99,36.99c1.33,0,2.63-.07,3.92-.21-.11-.85-.18-1.71-.21-2.59-.31-1.55-.47-3.15-.47-4.78Zm-5.37-24.51c-.93,0-1.79-.51-2.25-1.31l-9.64-17.23c-.71-1.27-.26-2.87,1.01-3.58,1.27-.71,2.87-.26,3.58,1.01l8.88,15.88h13.32c1.45,0,2.63,1.18,2.63,2.63s-1.18,2.63-2.63,2.63v-.03s-14.89,0-14.89,0Z" stroke-width="0"/><path d="m73.7,51.26c-11.49,0-20.8,9.31-20.8,20.8s9.31,20.8,20.8,20.8,20.8-9.31,20.8-20.8-9.31-20.8-20.8-20.8Zm-1.66,17.47c.46.48,1.32.98,2.58,1.48,1.26.5,2.29.98,3.1,1.43.81.45,1.49.95,2.05,1.51.56.56.98,1.2,1.28,1.92.29.72.44,1.56.44,2.51,0,1.79-.56,3.24-1.67,4.35-1.11,1.11-2.65,1.77-4.6,1.97v3.13s-2.51,0-2.51,0v-3.12c-2.15-.23-3.82-1-5-2.29-1.18-1.3-1.77-3.02-1.77-5.17h4.55c0,1.25.3,2.21.89,2.88.59.67,1.45,1,2.56,1,.93,0,1.66-.24,2.19-.73.53-.49.8-1.15.8-1.98,0-.86-.24-1.55-.72-2.06-.48-.51-1.29-.98-2.43-1.41-1.15-.43-2.13-.86-2.96-1.28-.83-.43-1.54-.91-2.13-1.47-.6-.55-1.06-1.2-1.39-1.94-.33-.75-.5-1.63-.5-2.66,0-1.78.57-3.23,1.7-4.36,1.13-1.13,2.64-1.79,4.52-1.98v-3.37s2.52,0,2.52,0v3.42c1.86.26,3.31,1.04,4.36,2.32,1.05,1.29,1.58,2.95,1.58,5h-4.55c0-1.26-.26-2.2-.78-2.83-.52-.62-1.22-.94-2.09-.94-.86,0-1.53.24-2,.73-.47.49-.71,1.17-.71,2.02,0,.8.23,1.44.69,1.92Z" stroke-width="0"/></svg>