<?xml version="1.0" encoding="UTF-8"?><svg id="uuid-1ec12359-fe71-429e-96c1-9c08fd96d7a8" xmlns="http://www.w3.org/2000/svg" viewBox="0 0 100 100"><path d="m50,6.44H13.8v43.06c0,24.31,36.2,44.05,36.2,44.05,0,0,36.2-19.74,36.2-44.05V6.44h-36.2Zm27.76,30.05l-.03,9.63v3.62l-.07,1.23c-.14,1.64-.41,3.28-.96,4.82l-.17.58c-.07.2-.14.38-.2.58l-.44,1.13-.51,1.13c-.1.17-.17.38-.27.55l-.31.55c-.75,1.43-1.64,2.8-2.6,4.13-1.91,2.63-4.1,5.02-6.45,7.24-.58.55-1.2,1.09-1.78,1.64-.61.51-1.23,1.06-1.84,1.57-1.26,1.02-2.53,2.01-3.82,2.94-2.63,1.88-5.33,3.65-8.16,5.22l-.27-.48,1.84-1.57c.61-.51,1.2-1.09,1.81-1.61,1.2-1.06,2.36-2.15,3.52-3.24,2.29-2.19,4.47-4.47,6.49-6.8,1.02-1.16,1.98-2.36,2.87-3.59l.65-.92c.24-.31.41-.61.65-.92.44-.61.82-1.23,1.2-1.84.2-.31.38-.65.55-.96.17-.31.38-.61.51-.96l.48-.96c.17-.31.31-.65.44-.96l.2-.48c.07-.17.14-.31.17-.48l.38-.96.31-.96c.03-.17.1-.31.14-.48l.1-.48c.34-1.26.48-2.53.51-3.76v-1.5l-.03-.61-.07-2.42-.07-2.42-.03-2.42-.1-4.82c-.03-4.85-.07-9.73,0-14.58l-1.95-.07-3.41-.1-3.41-.17-3.41-.17-3.41-.2c-2.25-.14-4.54-.31-6.8-.48-4.54-.34-9.08-.75-13.63-1.3-2.25-.27-4.54-.55-6.8-.89-2.25-.31-4.54-.65-6.8-1.09v-.55l13.63-.1c4.54-.03,9.08-.03,13.63-.07l27.25-.07h.51v.51l.03,9.63-.03,9.73Z" stroke-width="0"/></svg>